<svg width="43" height="43" fill="none" xmlns="http://www.w3.org/2000/svg"><ellipse cx="21.511" cy="21.5" rx="21.489" ry="21.5" fill="#fff"/><path d="M24.699 13.003L22.779 13c-2.155 0-3.548 1.546-3.548 3.938v1.815h-1.93c-.166 0-.301.146-.301.326v2.631c0 .18.135.326.302.326h1.929v6.638c0 .18.135.326.302.326h2.517c.167 0 .302-.146.302-.326v-6.638h2.256c.166 0 .301-.146.301-.326l.001-2.63a.34.34 0 00-.088-.231.29.29 0 00-.214-.096h-2.256v-1.539c0-.74.163-1.115 1.054-1.115h1.292c.167 0 .302-.147.302-.327V13.33c0-.18-.135-.326-.301-.327z" fill="#000"/></svg>