<svg width="43" height="43" fill="none" xmlns="http://www.w3.org/2000/svg"><ellipse cx="21.489" cy="21.5" rx="21.489" ry="21.5" fill="#fff"/><path d="M24.375 31h-6.75A5.626 5.626 0 0112 25.375v-6.75A5.626 5.626 0 0117.625 13h6.75A5.626 5.626 0 0130 18.625v6.75A5.626 5.626 0 0124.375 31zm3.938-12.375a3.942 3.942 0 00-3.938-3.938h-6.75a3.942 3.942 0 00-3.938 3.938v6.75a3.942 3.942 0 003.938 3.938h6.75a3.942 3.942 0 003.938-3.938v-6.75z" fill="#000"/><path d="M21 26.5a4.5 4.5 0 110-9 4.5 4.5 0 010 9zm0-7.313A2.816 2.816 0 0018.187 22 2.816 2.816 0 0021 24.813 2.816 2.816 0 0023.813 22 2.816 2.816 0 0021 19.187zM25.837 26.238a.6.6 0 110 1.199.6.6 0 010-1.2z" fill="#000"/></svg>